<?xml version="1.0" encoding="UTF-8"?>
<svg width="530px" height="338px" viewBox="0 0 530 338" version="1.1" xmlns="http://www.w3.org/2000/svg" xmlns:xlink="http://www.w3.org/1999/xlink">
    <!-- Generator: Sketch 40.3 (33839) - http://www.bohemiancoding.com/sketch -->
    <title>laptop</title>
    <desc>Created with Sketch.</desc>
    <defs>
        <polygon id="path-1" points="0.8965 261.562 437.5 261.562 437.5 0.513 0.8965 0.513 0.8965 261.562"></polygon>
    </defs>
    <g id="Page-1" stroke="none" stroke-width="1" fill="none" fill-rule="evenodd">
        <g id="laptop">
            <g id="laptop-bg" transform="translate(1.000000, 14.465000)">
                <path d="M497.5785,315.6869 L30.3295,315.6869 C23.1805,315.6869 17.3315,309.8379 17.3315,302.6889 L17.3315,13.2329 C17.3315,6.0839 23.1805,0.2349 30.3295,0.2349 L497.5785,0.2349 C504.7275,0.2349 510.5765,6.0839 510.5765,13.2329 L510.5765,302.6889 C510.5765,309.8379 504.7275,315.6869 497.5785,315.6869" id="Fill-48" fill="#FFFFFF"></path>
                <path d="M267.141,8.5289 C267.141,10.2889 265.714,11.7159 263.954,11.7159 C262.194,11.7159 260.767,10.2889 260.767,8.5289 C260.767,6.7689 262.194,5.3419 263.954,5.3419 C265.714,5.3419 267.141,6.7689 267.141,8.5289" id="Fill-50" fill="#D6D7D7"></path>
                <path d="M12.0754,298.7187 C5.6174,298.7187 0.3334,304.0027 0.3334,310.4607 C0.3334,316.9187 5.59374835,321.568461 12.0517483,321.568461 L515.808748,321.568461 C522.266748,321.568461 527.5744,316.9187 527.5744,310.4607 C527.5744,304.0027 522.2904,298.7187 515.8324,298.7187 L12.0754,298.7187 Z" id="Fill-51" fill="#FFFFFF"></path>
                <polygon id="Fill-52" fill="#FFFFFF" points="0.333 310.894 527.574 310.894 527.574 298.719 0.333 298.719"></polygon>
                <path d="M295.3671,299.2212 C295.3671,302.6412 292.4011,304.9212 288.7761,304.9212 L239.1321,304.9212 C235.5071,304.9212 232.5411,302.6412 232.5411,299.2212 L295.3671,299.2212 Z" id="Fill-53" fill="#D6D7D7"></path>
                <polygon id="Fill-54" fill="#54E3AC" points="31.538 277.562 495.499 277.562 495.499 16.513 31.538 16.513"></polygon>
                <g id="Group-7" transform="translate(58.000000, 16.000000)">
                    <mask id="mask-2" fill="white">
                        <use xlink:href="#path-1"></use>
                    </mask>
                    <g id="Clip-57"></g>
                    <path d="M53.5378,93.9549 C53.5378,98.2649 50.0438,101.7589 45.7338,101.7589 C41.4238,101.7589 37.9308,98.2649 37.9308,93.9549 C37.9308,89.6449 41.4238,86.1509 45.7338,86.1509 C50.0438,86.1509 53.5378,89.6449 53.5378,93.9549" id="Fill-58" fill="#2ECC8F" mask="url(#mask-2)"></path>
                    <path d="M84.021,93.9549 C84.021,98.2649 80.527,101.7589 76.217,101.7589 C71.907,101.7589 68.414,98.2649 68.414,93.9549 C68.414,89.6449 71.907,86.1509 76.217,86.1509 C80.527,86.1509 84.021,89.6449 84.021,93.9549" id="Fill-59" fill="#2ECC8F" mask="url(#mask-2)"></path>
                    <path d="M114.5043,93.9549 C114.5043,98.2649 111.0103,101.7589 106.7003,101.7589 C102.3903,101.7589 98.8973,98.2649 98.8973,93.9549 C98.8973,89.6449 102.3903,86.1509 106.7003,86.1509 C111.0103,86.1509 114.5043,89.6449 114.5043,93.9549" id="Fill-60" fill="#2ECC8F" mask="url(#mask-2)"></path>
                    <path d="M144.9875,93.9549 C144.9875,98.2649 141.4935,101.7589 137.1835,101.7589 C132.8735,101.7589 129.3805,98.2649 129.3805,93.9549 C129.3805,89.6449 132.8735,86.1509 137.1835,86.1509 C141.4935,86.1509 144.9875,89.6449 144.9875,93.9549" id="Fill-61" fill="#2ECC8F" mask="url(#mask-2)"></path>
                    <polygon id="Fill-62" fill="#2ECC8F" mask="url(#mask-2)" points="3.177 122.488 157.071 122.488 157.071 113.368 3.177 113.368"></polygon>
                    <polygon id="Fill-63" fill="#2ECC8F" mask="url(#mask-2)" points="3.177 158.966 173.03 158.966 173.03 149.846 3.177 149.846"></polygon>
                    <polygon id="Fill-64" fill="#2ECC8F" mask="url(#mask-2)" points="3.177 195.445 166.19 195.445 166.19 186.325 3.177 186.325"></polygon>
                    <polygon id="Fill-65" fill="#2ECC8F" mask="url(#mask-2)" points="3.176 140.727 185.569 140.727 185.569 131.607 3.176 131.607"></polygon>
                    <polygon id="Fill-66" fill="#2ECC8F" mask="url(#mask-2)" points="48.775 35.851 122.872 35.851 122.872 26.731 48.775 26.731"></polygon>
                    <polygon id="Fill-67" fill="#2ECC8F" mask="url(#mask-2)" points="48.775 54.09 136.551 54.09 136.551 44.97 48.775 44.97"></polygon>
                    <polygon id="Fill-68" fill="#2ECC8F" mask="url(#mask-2)" points="3.176 177.206 185.569 177.206 185.569 168.086 3.176 168.086"></polygon>
                    <path d="M35.0955,43.8309 C35.0955,53.2749 27.4395,60.9299 17.9965,60.9299 C8.5525,60.9299 0.8965,53.2749 0.8965,43.8309 C0.8965,34.3869 8.5525,26.7319 17.9965,26.7319 C27.4395,26.7319 35.0955,34.3869 35.0955,43.8309" id="Fill-69" fill="#2ECC8F" mask="url(#mask-2)"></path>
                    <polygon id="Fill-70" fill="#2ECC8F" mask="url(#mask-2)" points="3.176 314 185.569 314 185.569 215.964 3.176 215.964"></polygon>
                    <polygon id="Fill-71" fill="#2ECC8F" mask="url(#mask-2)" points="247.127 155.546 365.682 155.546 365.682 57.51 247.127 57.51"></polygon>
                    <polygon id="Fill-72" fill="#2ECC8F" mask="url(#mask-2)" points="401.021 155.546 519.576 155.546 519.576 57.51 401.021 57.51"></polygon>
                </g>
            </g>
        </g>
    </g>
</svg>