<?xml version="1.0" encoding="UTF-8"?>
<svg width="530px" height="338px" viewBox="0 0 530 338" version="1.1" xmlns="http://www.w3.org/2000/svg" xmlns:xlink="http://www.w3.org/1999/xlink">
    <!-- Generator: Sketch 40.3 (33839) - http://www.bohemiancoding.com/sketch -->
    <title>laptop</title>
    <desc>Created with Sketch.</desc>
    <defs></defs>
    <g id="Page-1" stroke="none" stroke-width="1" fill="none" fill-rule="evenodd">
        <g id="laptop">
            <g id="laptop-email" transform="translate(156.000000, 70.000000)">
                <polygon id="email-Fill-30" fill="#FFFFFF" points="0.533382643 176.087391 220.750345 176.087391 220.750345 0.181277293 0.533382643 0.181277293"></polygon>
                <path d="M212.171036,166.053163 C212.171036,166.855466 211.520394,167.506176 210.718176,167.506176 L199.324093,167.506176 C198.521874,167.506176 197.871233,166.855466 197.871233,166.053163 L197.871233,154.659309 C197.871233,153.855575 198.521874,153.204866 199.324093,153.204866 L210.718176,153.204866 C211.520394,153.204866 212.171036,153.855575 212.171036,154.659309 L212.171036,166.053163 Z" id="email-Fill-32" fill="#FF5C3E"></path>
                <polygon id="email-Fill-33" fill="#FFFFFF" points="209.311075 158.925962 206.451114 158.925962 206.451114 156.0657 203.591154 156.0657 203.591154 158.925962 200.731193 158.925962 200.731193 161.786224 203.591154 161.786224 203.591154 164.646486 206.451114 164.646486 206.451114 161.786224 209.311075 161.786224"></polygon>
                <polygon id="email-Fill-34" fill="#D6D7D7" points="46.2927515 101.720579 183.570858 101.720579 183.570858 93.1397926 46.2927515 93.1397926"></polygon>
                <polygon id="email-Fill-35" fill="#D6D7D7" points="34.8529093 117.45202 197.870661 117.45202 197.870661 110.301365 34.8529093 110.301365"></polygon>
                <polygon id="email-Fill-36" fill="#D6D7D7" points="59.162574 156.065557 140.67145 156.065557 140.67145 131.75333 59.162574 131.75333"></polygon>
                <polygon id="email-Fill-37" fill="#2ECC8F" points="140.67145 156.065557 169.271055 156.065557 169.271055 131.75333 140.67145 131.75333"></polygon>
                <path d="M136,46.0915491 C136,32.8367151 125.254834,22.0915491 112,22.0915491 C98.745166,22.0915491 88,32.8367151 88,46.0915491 C88,59.346383 98.745166,70.0915491 112,70.0915491 C125.254834,70.0915491 136,59.346383 136,46.0915491 Z M86,46.0915491 C86,31.7321456 97.6405965,20.0915491 112,20.0915491 C126.359403,20.0915491 138,31.7321456 138,46.0915491 C138,60.4509525 126.359403,72.0915491 112,72.0915491 C97.6405965,72.0915491 86,60.4509525 86,46.0915491 Z" id="email-Oval-5" fill="#D7D8D8"></path>
                <path d="M99.0729783,53.601956 C99.0729783,55.2571731 100.415324,56.6009934 102.068213,56.6009934 L123.275995,56.6009934 C124.925574,56.6009934 126.27123,55.2556639 126.27123,53.601956 L126.27123,38.6000309 C126.27123,36.9448138 124.928884,35.6009934 123.275995,35.6009934 L102.068213,35.6009934 C100.418634,35.6009934 99.0729783,36.946323 99.0729783,38.6000309 L99.0729783,53.601956 Z M102.068213,33.6009934 L123.275995,33.6009934 C126.034787,33.6009934 128.27123,35.841578 128.27123,38.6000309 L128.27123,53.601956 C128.27123,56.3628481 126.027529,58.6009934 123.275995,58.6009934 L102.068213,58.6009934 C99.3094212,58.6009934 97.0729783,56.3604089 97.0729783,53.601956 L97.0729783,38.6000309 C97.0729783,35.8391388 99.3166796,33.6009934 102.068213,33.6009934 Z" id="email-Rectangle-3" fill="#D7D8D8"></path>
                <path d="M112.127338,47.9254911 C112.464369,48.1589814 112.90978,48.1630829 113.251054,47.9358388 L125.01219,40.1044449 L123.903708,38.4397329 L112.142572,46.2711267 L113.266288,46.2814744 L101.346319,38.0234933 L100.207368,39.66751 L112.127338,47.9254911 Z" id="email-Path-18" fill="#D7D8D8"></path>
            </g>
        </g>
    </g>
</svg>