<?xml version="1.0" encoding="UTF-8"?>
<svg width="530px" height="338px" viewBox="0 0 530 338" version="1.1" xmlns="http://www.w3.org/2000/svg" xmlns:xlink="http://www.w3.org/1999/xlink">
    <!-- Generator: Sketch 40.3 (33839) - http://www.bohemiancoding.com/sketch -->
    <title>laptop</title>
    <desc>Created with Sketch.</desc>
    <defs></defs>
    <g id="Page-1" stroke="none" stroke-width="1" fill="none" fill-rule="evenodd">
        <g id="laptop">
            <g id="laptop-related" transform="translate(238.000000, 207.000000)">
                <polygon id="related-Fill-30" fill="#FFFFFF" points="0.209694444 71.5172694 243.404139 71.5172694 243.404139 0.0560821918 0.209694444 0.0560821918"></polygon>
                <path d="M231.959551,27.2439196 C231.959551,28.0157005 231.332968,28.6417005 230.560468,28.6417005 L219.053079,28.6417005 C218.280579,28.6417005 217.653996,28.0157005 217.653996,27.2439196 L217.653996,15.7458146 C217.653996,14.9740338 218.280579,14.349463 219.053079,14.349463 L230.560468,14.349463 C231.332968,14.349463 231.959551,14.9740338 231.959551,15.7458146 L231.959551,27.2439196 Z" id="related-Fill-32" fill="#FF5C3E"></path>
                <polygon id="related-Fill-33" fill="#FFFFFF" points="228.626353 20.9692874 225.765242 20.9692874 225.765242 18.1108399 224.334686 18.1108399 224.334686 20.9692874 221.473575 20.9692874 221.473575 22.3985111 224.334686 22.3985111 224.334686 25.2569586 225.765242 25.2569586 225.765242 22.3985111 228.626353 22.3985111"></polygon>
                <polygon id="related-Fill-34" fill="#D6D7D7" points="84.6124722 44.3620183 193.334694 44.3620183 193.334694 37.2158995 84.6124722 37.2158995"></polygon>
                <polygon id="related-Fill-35" fill="#D6D7D7" points="84.6124722 28.6405571 199.056917 28.6405571 199.056917 15.7775434 84.6124722 15.7775434"></polygon>
                <polygon id="related-Fill-36" fill="#D6D7D7" points="84.6124722 58.6542557 204.779139 58.6542557 204.779139 51.508137 84.6124722 51.508137"></polygon>
                <polygon id="related-Fill-37" fill="#D6D7D7" points="0.209694444 71.5172694 70.3069167 71.5172694 70.3069167 0.0560821918 0.209694444 0.0560821918"></polygon>
            </g>
        </g>
    </g>
</svg>