<?xml version="1.0" encoding="UTF-8"?>
<svg width="530px" height="338px" viewBox="0 0 530 338" version="1.1" xmlns="http://www.w3.org/2000/svg" xmlns:xlink="http://www.w3.org/1999/xlink">
    <!-- Generator: Sketch 40.3 (33839) - http://www.bohemiancoding.com/sketch -->
    <title>laptop</title>
    <desc>Created with Sketch.</desc>
    <defs></defs>
    <g id="Page-1" stroke="none" stroke-width="1" fill="none" fill-rule="evenodd">
        <g id="laptop">
            <g id="laptop-link" transform="translate(155.000000, 70.000000)">
                <polygon id="link-Fill-30" fill="#FFFFFF" points="0.460404339 176.486397 220.677367 176.486397 220.677367 0.580283843 0.460404339 0.580283843"></polygon>
                <path d="M212.098057,166.452169 C212.098057,167.254473 211.447416,167.905182 210.645197,167.905182 L199.251114,167.905182 C198.448895,167.905182 197.798254,167.254473 197.798254,166.452169 L197.798254,155.058316 C197.798254,154.254582 198.448895,153.603872 199.251114,153.603872 L210.645197,153.603872 C211.447416,153.603872 212.098057,154.254582 212.098057,155.058316 L212.098057,166.452169 Z" id="link-Fill-32" fill="#FF5C3E"></path>
                <polygon id="link-Fill-33" fill="#FFFFFF" points="209.238097 159.324968 206.378136 159.324968 206.378136 156.464706 203.518176 156.464706 203.518176 159.324968 200.658215 159.324968 200.658215 162.18523 203.518176 162.18523 203.518176 165.045492 206.378136 165.045492 206.378136 162.18523 209.238097 162.18523"></polygon>
                <polygon id="link-Fill-34" fill="#D6D7D7" points="46.2197732 102.119585 183.49788 102.119585 183.49788 93.5387991 46.2197732 93.5387991"></polygon>
                <polygon id="link-Fill-35" fill="#D6D7D7" points="34.779931 117.851026 197.797682 117.851026 197.797682 110.700371 34.779931 110.700371"></polygon>
                <polygon id="link-Fill-37" fill="#1ECE8E" points="70.1980769 156.464563 158.198077 156.464563 158.198077 132.152336 70.1980769 132.152336"></polygon>
                <path d="M117.601405,46.6512933 L122.462199,40.8584255 C124.599556,38.3112225 124.264771,34.5310762 121.726323,32.4010654 C119.19304,30.2753888 115.4017,30.604114 113.269665,33.1449742 L108.408872,38.937842 C106.271515,41.4850451 106.605439,45.264469 109.142825,47.3935886 L109.38955,47.6006153 L110.675125,46.0685265 L110.4284,45.8614997 C108.735116,44.4406659 108.515326,41.9224228 109.940961,40.2234172 L114.801754,34.4305494 C116.222338,32.7375631 118.75189,32.5160344 120.440747,33.9331543 C122.135238,35.3550005 122.355624,37.8739882 120.93011,39.5728503 L116.069316,45.3657181 L117.601405,46.6512933 Z" id="link-Rectangle-19" fill="#D7D8D8"></path>
                <path d="M105.269216,43.949322 L100.408422,49.7421898 C98.2710653,52.2893929 98.6058505,56.0695392 101.144298,58.1995499 C103.677581,60.3252266 107.468921,59.9965014 109.600956,57.4556411 L114.461749,51.6627733 C116.599106,49.1155703 116.265182,45.3361464 113.727796,43.2070267 L113.481071,43 L112.195496,44.5320889 L112.442221,44.7391156 C114.135505,46.1599495 114.355295,48.6781925 112.92966,50.3771981 L108.068867,56.1700659 C106.648283,57.8630522 104.118731,58.0845809 102.429874,56.6674611 C100.735383,55.2456149 100.514997,52.7266271 101.940511,51.027765 L106.801305,45.2348972 L105.269216,43.949322 Z" id="link-Rectangle-19-Copy" fill="#D7D8D8"></path>
                <path d="M136,45 C136,31.745166 125.254834,21 112,21 C98.745166,21 88,31.745166 88,45 C88,58.254834 98.745166,69 112,69 C125.254834,69 136,58.254834 136,45 Z M86,45 C86,30.6405965 97.6405965,19 112,19 C126.359403,19 138,30.6405965 138,45 C138,59.3594035 126.359403,71 112,71 C97.6405965,71 86,59.3594035 86,45 Z" id="link-Oval-5" fill="#D7D8D8"></path>
            </g>
        </g>
    </g>
</svg>