<?xml version="1.0" encoding="UTF-8"?>
<svg width="530px" height="338px" viewBox="0 0 530 338" version="1.1" xmlns="http://www.w3.org/2000/svg" xmlns:xlink="http://www.w3.org/1999/xlink">
    <!-- Generator: Sketch 40.3 (33839) - http://www.bohemiancoding.com/sketch -->
    <title>laptop</title>
    <desc>Created with Sketch.</desc>
    <defs></defs>
    <g id="Page-1" stroke="none" stroke-width="1" fill="none" fill-rule="evenodd">
        <g id="laptop">
            <g id="laptop-follow" transform="translate(423.000000, 44.000000)">
                <path d="M58.8467499,8.20469884 C58.8467499,12.7362819 55.1848236,16.409332 50.6669645,16.409332 C46.1491055,16.409332 42.4871792,12.7362819 42.4871792,8.20469884 C42.4871792,3.67311583 46.1491055,6.56370658e-05 50.6669645,6.56370658e-05 C55.1848236,6.56370658e-05 58.8467499,3.67311583 58.8467499,8.20469884" id="follow-Fill-19" fill="#717272"></path>
                <path d="M29.3699727,16.6042085 C24.8521137,16.6042085 21.1901874,12.9311583 21.1901874,8.39957529 C21.1901874,3.86799228 24.8521137,0.194942085 29.3699727,0.194942085 C33.8878318,0.194942085 37.5497581,3.86799228 37.5497581,8.39957529 C37.5497581,12.9311583 33.8878318,16.6042085 29.3699727,16.6042085 Z" id="follow-Fill-20" fill="#34A8D0"></path>
                <path d="M16.3595707,8.2046332 C16.3595707,12.7362162 12.6976444,16.4092664 8.17978533,16.4092664 C3.6619263,16.4092664 0,12.7362162 0,8.2046332 C0,3.67305019 3.6619263,5.32907052e-15 8.17978533,5.32907052e-15 C12.6976444,5.32907052e-15 16.3595707,3.67305019 16.3595707,8.2046332" id="follow-Fill-21" fill="#395C92"></path>
            </g>
        </g>
    </g>
</svg>