<?xml version="1.0" encoding="UTF-8"?>
<svg width="61px" height="124px" viewBox="0 0 61 124" version="1.1" xmlns="http://www.w3.org/2000/svg" xmlns:xlink="http://www.w3.org/1999/xlink">
    <!-- Generator: Sketch 40.3 (33839) - http://www.bohemiancoding.com/sketch -->
    <title>phone</title>
    <desc>Created with Sketch.</desc>
    <defs></defs>
    <g id="Page-1" stroke="none" stroke-width="1" fill="none" fill-rule="evenodd">
        <g id="phone">
            <g id="iPhone-BG" transform="translate(1.000000, 0.000000)">
                <path d="M52.2126,122 L6.8366,122 C3.0766,122 -0.000400000001,118.904114 -0.000400000001,115.119807 L-0.000400000001,7.29019303 C-0.000400000001,3.50588557 3.0766,0.41 6.8366,0.41 L52.2126,0.41 C55.9726,0.41 59.0486,3.50588557 59.0486,7.29019303 L59.0486,115.119807 C59.0486,118.904114 55.9726,122 52.2126,122" id="Fill-29" fill="#FFFFFF"></path>
                <polygon id="Fill-30" fill="#3D4187" points="4.595 99.518 54.461 99.518 54.461 17.492 4.595 17.492"></polygon>
                <path d="M34.6476,111.6263 C34.6476,114.5073 32.3116,116.8433 29.4306,116.8433 C26.5496,116.8433 24.2136,114.5073 24.2136,111.6263 C24.2136,108.7453 26.5496,106.4093 29.4306,106.4093 C32.3116,106.4093 34.6476,108.7453 34.6476,111.6263" id="Fill-31" fill="#D6D7D7"></path>
                <path d="M31.4749,8.722 C31.4749,9.851 30.5599,10.766 29.4309,10.766 C28.3019,10.766 27.3869,9.851 27.3869,8.722 C27.3869,7.593 28.3019,6.678 29.4309,6.678 C30.5599,6.678 31.4749,7.593 31.4749,8.722" id="Fill-32" fill="#D6D7D7"></path>
                <polygon id="Fill-33" fill="#1E2143" points="10.015 29.778 42.898 29.778 42.898 22.551 10.015 22.551"></polygon>
                <polygon id="Fill-34" fill="#1E2143" points="8.932 53.265 44.344 53.265 44.344 50.374 8.932 50.374"></polygon>
                <polygon id="Fill-35" fill="#1E2143" points="8.931 65.19 47.957 65.19 47.957 62.299 8.931 62.299"></polygon>
                <polygon id="Fill-36" fill="#1E2143" points="8.932 77.114 46.512 77.114 46.512 74.223 8.932 74.223"></polygon>
                <polygon id="Fill-37" fill="#1E2143" points="8.931 59.408 51.209 59.408 51.209 56.517 8.931 56.517"></polygon>
                <polygon id="Fill-38" fill="#1E2143" points="25.192 38.089 45.428 38.089 45.428 35.198 25.192 35.198"></polygon>
                <polygon id="Fill-39" fill="#1E2143" points="25.193 43.87 49.403 43.87 49.403 40.979 25.193 40.979"></polygon>
                <polygon id="Fill-40" fill="#1E2143" points="8.931 71.333 51.209 71.333 51.209 68.442 8.931 68.442"></polygon>
                <path d="M20.4947,39.3534 C20.4947,42.4464 17.9867,44.9544 14.8937,44.9544 C11.8007,44.9544 9.2927,42.4464 9.2927,39.3534 C9.2927,36.2604 11.8007,33.7524 14.8937,33.7524 C17.9867,33.7524 20.4947,36.2604 20.4947,39.3534" id="Fill-41" fill="#1E2143"></path>
            </g>
        </g>
    </g>
</svg>