<?xml version="1.0" encoding="UTF-8"?>
<svg width="61px" height="124px" viewBox="0 0 61 124" version="1.1" xmlns="http://www.w3.org/2000/svg" xmlns:xlink="http://www.w3.org/1999/xlink">
    <!-- Generator: Sketch 40.3 (33839) - http://www.bohemiancoding.com/sketch -->
    <title>phone</title>
    <desc>Created with Sketch.</desc>
    <defs></defs>
    <g id="Page-1" stroke="none" stroke-width="1" fill="none" fill-rule="evenodd">
        <g id="phone">
            <g id="phone-follow" transform="translate(18.000000, 21.000000)">
                <path d="M34.9090889,4.82629344 C34.9090889,7.4919305 32.7367597,9.65254826 30.0566739,9.65254826 C27.376588,9.65254826 25.2042589,7.4919305 25.2042589,4.82629344 C25.2042589,2.16065637 27.376588,3.86100387e-05 30.0566739,3.86100387e-05 C32.7367597,3.86100387e-05 34.9090889,2.16065637 34.9090889,4.82629344" id="follow-Fill-19" fill="#717272"></path>
                <path d="M17.4228652,9.76718147 C14.7427793,9.76718147 12.5704501,7.60656371 12.5704501,4.94092664 C12.5704501,2.27528958 14.7427793,0.114671815 17.4228652,0.114671815 C20.102951,0.114671815 22.2752802,2.27528958 22.2752802,4.94092664 C22.2752802,7.60656371 20.102951,9.76718147 17.4228652,9.76718147 Z" id="follow-Fill-20" fill="#34A8D0"></path>
                <path d="M9.70483005,4.82625483 C9.70483005,7.49189189 7.53250089,9.65250965 4.85241503,9.65250965 C2.17232916,9.65250965 0,7.49189189 0,4.82625483 C0,2.16061776 2.17232916,-3.55271368e-15 4.85241503,-3.55271368e-15 C7.53250089,-3.55271368e-15 9.70483005,2.16061776 9.70483005,4.82625483" id="follow-Fill-21" fill="#395C92"></path>
            </g>
        </g>
    </g>
</svg>