<?xml version="1.0" encoding="UTF-8"?>
<svg width="61px" height="124px" viewBox="0 0 61 124" version="1.1" xmlns="http://www.w3.org/2000/svg" xmlns:xlink="http://www.w3.org/1999/xlink">
    <!-- Generator: Sketch 40.3 (33839) - http://www.bohemiancoding.com/sketch -->
    <title>phone</title>
    <desc>Created with Sketch.</desc>
    <defs></defs>
    <g id="Page-1" stroke="none" stroke-width="1" fill="none" fill-rule="evenodd">
        <g id="phone">
            <g id="phone-related" transform="translate(6.000000, 84.000000)">
                <polygon id="related-Fill-30" fill="#FFFFFF" points="1.00289508 14.9057167 48.5671964 14.9003299 48.5671964 0.94306682 1.00289508 0.948453553"></polygon>
                <path d="M47.5428254,6.25857805 C47.5428254,6.4093165 47.4169951,6.53158212 47.2618619,6.53158212 L44.9509519,6.53158212 C44.7958187,6.53158212 44.6699884,6.4093165 44.6699884,6.25857805 L44.6699884,4.01285442 C44.6699884,3.86211597 44.7958187,3.74012949 44.9509519,3.74012949 L47.2618619,3.74012949 C47.4169951,3.74012949 47.5428254,3.86211597 47.5428254,4.01285442 L47.5428254,6.25857805 Z" id="related-Fill-32" fill="#FF5C3E"></path>
                <polygon id="related-Fill-33" fill="#FFFFFF" points="46.8667303 5.04870889 46.2921629 5.04870889 46.2921629 4.49041837 46.0048792 4.49041837 46.0048792 5.04870889 45.4303118 5.04870889 45.4303118 5.32785416 46.0048792 5.32785416 46.0048792 5.88614468 46.2921629 5.88614468 46.2921629 5.32785416 46.8667303 5.32785416"></polygon>
                <polygon id="related-Fill-34" fill="#D6D7D7" points="17.9526332 9.60195669 39.7861943 9.60195669 39.7861943 8.20623038 17.9526332 8.20623038"></polygon>
                <polygon id="related-Fill-35" fill="#D6D7D7" points="17.9526332 6.5313588 40.9353291 6.5313588 40.9353291 4.01905144 17.9526332 4.01905144"></polygon>
                <polygon id="related-Fill-36" fill="#D6D7D7" points="17.9526332 12.3934093 42.0844638 12.3934093 42.0844638 10.997683 17.9526332 10.997683"></polygon>
                <polygon id="related-Fill-37" fill="#D6D7D7" points="0.54475283 14.8769563 15.0797963 14.9057167 15.0797963 0.948453553 0.54475283 0.919693215"></polygon>
            </g>
        </g>
    </g>
</svg>