<?xml version="1.0" encoding="UTF-8"?>
<svg width="61px" height="124px" viewBox="0 0 61 124" version="1.1" xmlns="http://www.w3.org/2000/svg" xmlns:xlink="http://www.w3.org/1999/xlink">
    <!-- Generator: Sketch 40.3 (33839) - http://www.bohemiancoding.com/sketch -->
    <title>phone</title>
    <desc>Created with Sketch.</desc>
    <defs>
        <ellipse id="path-1" cx="22.3005685" cy="9.07975071" rx="5.17691768" ry="5.24607819"></ellipse>
        <mask id="mask-2" maskContentUnits="userSpaceOnUse" maskUnits="objectBoundingBox" x="0" y="0" width="10.3538354" height="10.4921564" fill="white">
            <use xlink:href="#path-1"></use>
        </mask>
    </defs>
    <g id="Page-1" stroke="none" stroke-width="1" fill="none" fill-rule="evenodd">
        <g id="phone">
            <g id="phone-link" transform="translate(8.498100, 43.643157)">
                <polygon id="link-Fill-30" fill="#FFFFFF" points="0.0916721294 35.6100554 43.9395601 35.6100554 43.9395601 0.11708517 0.0916721294 0.11708517"></polygon>
                <path d="M42.2313147,33.5854267 C42.2313147,33.7473093 42.1017641,33.8786044 41.9420326,33.8786044 L39.6733314,33.8786044 C39.5135998,33.8786044 39.3840493,33.7473093 39.3840493,33.5854267 L39.3840493,31.2864633 C39.3840493,31.1242922 39.5135998,30.9929971 39.6733314,30.9929971 L41.9420326,30.9929971 C42.1017641,30.9929971 42.2313147,31.1242922 42.2313147,31.2864633 L42.2313147,33.5854267 Z" id="link-Fill-32" fill="#FF5C3E"></path>
                <polygon id="link-Fill-33" fill="#FFFFFF" points="41.6618616 32.1473554 41.0924085 32.1473554 41.0924085 31.570234 40.5229554 31.570234 40.5229554 32.1473554 39.9535024 32.1473554 39.9535024 32.7244769 40.5229554 32.7244769 40.5229554 33.3015984 41.0924085 33.3015984 41.0924085 32.7244769 41.6618616 32.7244769"></polygon>
                <polygon id="link-Fill-34" fill="#D6D7D7" points="9.20292158 20.6048972 36.5366699 20.6048972 36.5366699 18.8735328 9.20292158 18.8735328"></polygon>
                <polygon id="link-Fill-35" fill="#D6D7D7" points="6.92510922 23.7790653 39.3839354 23.7790653 39.3839354 22.3362616 6.92510922 22.3362616"></polygon>
                <polygon id="link-Fill-37" fill="#3D3F8B" points="10.7268799 32.2851026 34.749585 32.2851026 34.749585 25.9497752 10.7268799 25.9497752"></polygon>
                <path d="M23.4158767,9.41293586 L24.38372,8.24409596 C24.809294,7.7301411 24.7426341,6.96741252 24.2371981,6.53763548 C23.7327906,6.10873295 22.9778885,6.17506057 22.5533743,6.68773563 L21.585531,7.85657553 C21.1599571,8.37053039 21.2264455,9.13311321 21.73167,9.56271045 L21.780796,9.60448269 L22.4285813,8.84265974 L22.3794553,8.80088749 C22.2911114,8.72576782 22.2791479,8.58686542 22.3557546,8.49434954 L23.3235979,7.32550964 C23.3926813,7.2420793 23.5097176,7.23169277 23.5894128,7.29945844 C23.6780387,7.37481784 23.6900446,7.51387675 23.6134965,7.60632195 L22.6456532,8.77516185 L23.4158767,9.41293586 Z" id="link-Rectangle-19" fill="#D7D8D8"></path>
                <path d="M20.9603871,8.86775307 L19.9925438,10.036593 C19.5669698,10.5505478 19.6336296,11.3132764 20.1390657,11.7430534 C20.6434732,12.171956 21.3983753,12.1056284 21.8228895,11.5929533 L22.7907328,10.4241134 C23.2163067,9.91015854 23.1498183,9.14757572 22.6445938,8.71797848 L22.5954678,8.67620624 L21.9476825,9.43802919 L21.9968085,9.47980143 C22.0851524,9.5549211 22.0971159,9.69382351 22.0205092,9.78633939 L21.0526659,10.9551793 C20.9835825,11.0386096 20.8665462,11.0489962 20.786851,10.9812305 C20.6982251,10.9058711 20.6862192,10.7668122 20.7627673,10.674367 L21.7306106,9.50552708 L20.9603871,8.86775307 Z" id="link-Rectangle-19-Copy" fill="#D7D8D8"></path>
                <use id="link-Oval-5" stroke="#D7D8D8" mask="url(#mask-2)" stroke-width="2" stroke-linejoin="round" xlink:href="#path-1"></use>
            </g>
        </g>
    </g>
</svg>