<?xml version="1.0" encoding="UTF-8"?>
<svg width="61px" height="124px" viewBox="0 0 61 124" version="1.1" xmlns="http://www.w3.org/2000/svg" xmlns:xlink="http://www.w3.org/1999/xlink">
    <!-- Generator: Sketch 40.3 (33839) - http://www.bohemiancoding.com/sketch -->
    <title>phone</title>
    <desc>Created with Sketch.</desc>
    <defs></defs>
    <g id="Page-1" stroke="none" stroke-width="1" fill="none" fill-rule="evenodd">
        <g id="phone">
            <g id="phone-email" transform="translate(8.498100, 43.643157)">
                <polygon id="email-Fill-30" fill="#FFFFFF" points="0.106203001 35.5295469 43.954091 35.5295469 43.954091 0.036576725 0.106203001 0.036576725"></polygon>
                <path d="M42.2458456,33.5049183 C42.2458456,33.6668008 42.116295,33.798096 41.9565634,33.798096 L39.6878623,33.798096 C39.5281307,33.798096 39.3985801,33.6668008 39.3985801,33.5049183 L39.3985801,31.2059549 C39.3985801,31.0437838 39.5281307,30.9124886 39.6878623,30.9124886 L41.9565634,30.9124886 C42.116295,30.9124886 42.2458456,31.0437838 42.2458456,31.2059549 L42.2458456,33.5049183 Z" id="email-Fill-32" fill="#FF5C3E"></path>
                <polygon id="email-Fill-33" fill="#FFFFFF" points="41.6763925 32.066847 41.1069394 32.066847 41.1069394 31.4897255 40.5374863 31.4897255 40.5374863 32.066847 39.9680332 32.066847 39.9680332 32.6439685 40.5374863 32.6439685 40.5374863 33.2210899 41.1069394 33.2210899 41.1069394 32.6439685 41.6763925 32.6439685"></polygon>
                <polygon id="email-Fill-34" fill="#D6D7D7" points="9.21745245 20.5243888 36.5512008 20.5243888 36.5512008 18.7930244 9.21745245 18.7930244"></polygon>
                <polygon id="email-Fill-35" fill="#D6D7D7" points="6.93964009 23.6985569 39.3984662 23.6985569 39.3984662 22.2557532 6.93964009 22.2557532"></polygon>
                <polygon id="email-Fill-36" fill="#D6D7D7" points="9.07508918 32.5693509 29.3091626 32.5693509 29.3091626 25.50451 9.07508918 25.50451"></polygon>
                <polygon id="email-Fill-37" fill="#3D3F8B" points="29.3091626 32.5693509 36.4088375 32.5693509 36.4088375 25.50451 29.3091626 25.50451"></polygon>
                <path d="M26.4774862,9.29999501 C26.4774862,6.95200196 24.604424,5.05391682 22.3005685,5.05391682 C19.996713,5.05391682 18.1236508,6.95200196 18.1236508,9.29999501 C18.1236508,11.6479881 19.996713,13.5460732 22.3005685,13.5460732 C24.604424,13.5460732 26.4774862,11.6479881 26.4774862,9.29999501 Z M17.1236508,9.29999501 C17.1236508,6.40266603 19.4414358,4.05391682 22.3005685,4.05391682 C25.1597012,4.05391682 27.4774862,6.40266603 27.4774862,9.29999501 C27.4774862,12.197324 25.1597012,14.5460732 22.3005685,14.5460732 C19.4414358,14.5460732 17.1236508,12.197324 17.1236508,9.29999501 Z" id="email-Oval-5" fill="#D7D8D8"></path>
                <path d="M20.3284161,10.8274611 C20.3284161,10.8245215 24.5423114,10.8240536 24.5423114,10.8240536 C24.541616,10.8240536 24.5403691,7.77634018 24.5403691,7.77634018 C24.5403691,7.77927973 20.3264738,7.77974765 20.3264738,7.77974765 C20.3271692,7.77974765 20.3284161,10.8274611 20.3284161,10.8274611 Z M20.3264738,6.77974765 L24.5423114,6.77974765 C25.0935235,6.77974765 25.5403691,7.22739615 25.5403691,7.77634018 L25.5403691,10.8274611 C25.5403691,11.3778639 25.0936208,11.8240536 24.5423114,11.8240536 L20.3264738,11.8240536 C19.7752617,11.8240536 19.3284161,11.3764051 19.3284161,10.8274611 L19.3284161,7.77634018 C19.3284161,7.22593732 19.7751644,6.77974765 20.3264738,6.77974765 Z" id="email-Rectangle-3" fill="#D7D8D8"></path>
                <path d="M22.1520211,9.9133984 C22.3216543,10.0324878 22.5471744,10.0345745 22.7189823,9.91864441 L25.0607682,8.33848654 L24.5014285,7.50954799 L22.1596426,9.08970586 L22.7266038,9.09495187 L20.3531922,7.42872054 L19.7786095,8.24716707 L22.1520211,9.9133984 Z" id="email-Path-18" fill="#D7D8D8"></path>
            </g>
        </g>
    </g>
</svg>