<?xml version="1.0" encoding="UTF-8"?>
<svg width="151px" height="221px" viewBox="0 0 151 221" version="1.1" xmlns="http://www.w3.org/2000/svg" xmlns:xlink="http://www.w3.org/1999/xlink">
    <!-- Generator: Sketch 40.3 (33839) - http://www.bohemiancoding.com/sketch -->
    <title>tablet</title>
    <desc>Created with Sketch.</desc>
    <defs></defs>
    <g id="Page-1" stroke="none" stroke-width="1" fill="none" fill-rule="evenodd">
        <g id="tablet">
            <g id="tablet-follow" transform="translate(89.000000, 34.000000)">
                <path d="M47.8753219,6.75681081 C47.8753219,10.4887027 44.8961277,13.5135676 41.2205813,13.5135676 C37.545035,13.5135676 34.5658407,10.4887027 34.5658407,6.75681081 C34.5658407,3.02491892 37.545035,5.40540542e-05 41.2205813,5.40540542e-05 C44.8961277,5.40540542e-05 47.8753219,3.02491892 47.8753219,6.75681081" id="follow-Fill-19" fill="#717272"></path>
                <path d="M23.8942151,13.6740541 C20.2186688,13.6740541 17.2394745,10.6491892 17.2394745,6.9172973 C17.2394745,3.18540541 20.2186688,0.160540541 23.8942151,0.160540541 C27.5697614,0.160540541 30.5489557,3.18540541 30.5489557,6.9172973 C30.5489557,10.6491892 27.5697614,13.6740541 23.8942151,13.6740541 Z" id="follow-Fill-20" fill="#34A8D0"></path>
                <path d="M13.3094812,6.75675676 C13.3094812,10.4886486 10.3302869,13.5135135 6.65474061,13.5135135 C2.97919428,13.5135135 0,10.4886486 0,6.75675676 C0,3.02486486 2.97919428,4.4408921e-15 6.65474061,4.4408921e-15 C10.3302869,4.4408921e-15 13.3094812,3.02486486 13.3094812,6.75675676" id="follow-Fill-21" fill="#395C92"></path>
            </g>
        </g>
    </g>
</svg>