<?xml version="1.0" encoding="UTF-8"?>
<svg width="151px" height="221px" viewBox="0 0 151 221" version="1.1" xmlns="http://www.w3.org/2000/svg" xmlns:xlink="http://www.w3.org/1999/xlink">
    <!-- Generator: Sketch 40.3 (33839) - http://www.bohemiancoding.com/sketch -->
    <title>tablet</title>
    <desc>Created with Sketch.</desc>
    <defs></defs>
    <g id="Page-1" stroke="none" stroke-width="1" fill="none" fill-rule="evenodd">
        <g id="tablet">
            <g id="tablet-link" transform="translate(15.000000, 60.000000)">
                <polygon id="link-Fill-30" fill="#FFFFFF" points="0.256243139 98.7127307 122.820435 98.7127307 122.820435 0.324565539 0.256243139 0.324565539"></polygon>
                <path d="M118.045525,93.1003658 C118.045525,93.5491119 117.683404,93.9130681 117.23692,93.9130681 L110.895417,93.9130681 C110.448933,93.9130681 110.086811,93.5491119 110.086811,93.1003658 L110.086811,86.7275324 C110.086811,86.2779865 110.448933,85.9140303 110.895417,85.9140303 L117.23692,85.9140303 C117.683404,85.9140303 118.045525,86.2779865 118.045525,86.7275324 L118.045525,93.1003658 Z" id="link-Fill-32" fill="#FF5C3E"></path>
                <polygon id="link-Fill-33" fill="#FFFFFF" points="116.453782 89.1139653 114.86204 89.1139653 114.86204 87.5141578 113.270297 87.5141578 113.270297 89.1139653 111.678554 89.1139653 111.678554 90.7137729 113.270297 90.7137729 113.270297 92.3135805 114.86204 92.3135805 114.86204 90.7137729 116.453782 90.7137729"></polygon>
                <polygon id="link-Fill-34" fill="#D6D7D7" points="25.7241272 57.1177341 102.127779 57.1177341 102.127779 52.3183114 25.7241272 52.3183114"></polygon>
                <polygon id="link-Fill-35" fill="#D6D7D7" points="19.3571561 65.9166757 110.086493 65.9166757 110.086493 61.9171568 19.3571561 61.9171568"></polygon>
                <polygon id="link-Fill-37" fill="#FEBE12" points="39.0695179 87.5140778 88.0468935 87.5140778 88.0468935 73.9157135 39.0695179 73.9157135"></polygon>
                <path d="M65.4523658,26.0930963 L68.1576942,22.8530177 C69.347264,21.4283109 69.1609356,19.3139918 67.7481343,18.1226298 C66.3382077,16.933692 64.2280955,17.1175553 63.0414879,18.5387144 L60.3361595,21.778793 C59.1465897,23.2034998 59.3324389,25.3174149 60.7446492,26.5082784 L60.8819667,26.624073 L62.1712728,25.0951225 L62.0339554,24.9793279 C61.4624678,24.497414 61.3879674,23.6395935 61.871375,23.0606329 L64.5767033,19.8205543 C65.0523947,19.2508351 65.8955922,19.1766247 66.4588281,19.6515803 C67.0310497,20.1341131 67.1057672,20.9923599 66.6224787,21.5711778 L63.9171504,24.8112564 L65.4523658,26.0930963 Z" id="link-Rectangle-19" fill="#D7D8D8"></path>
                <path d="M58.588749,24.5818242 L55.8834206,27.8219028 C54.6938508,29.2466096 54.8801792,31.3609287 56.2929806,32.5522906 C57.7029072,33.7412284 59.8130193,33.5573652 60.999627,32.1362061 L63.7049553,28.8961275 C64.8945252,27.4714207 64.7086759,25.3575056 63.2964656,24.1666421 L63.1591482,24.0508475 L61.869842,25.579798 L62.0071595,25.6955926 C62.578647,26.1775064 62.6531474,27.035327 62.1697399,27.6142876 L59.4644115,30.8543662 C58.9887202,31.4240853 58.1455227,31.4982957 57.5822867,31.0233401 C57.0100652,30.5408073 56.9353477,29.6825606 57.4186361,29.1037427 L60.1239645,25.8636641 L58.588749,24.5818242 Z" id="link-Rectangle-19-Copy" fill="#D7D8D8"></path>
                <path d="M74.8054299,25.1694915 C74.8054299,18.2403208 69.2199358,12.6271186 62.3348416,12.6271186 C55.4497475,12.6271186 49.8642534,18.2403208 49.8642534,25.1694915 C49.8642534,32.0986622 55.4497475,37.7118644 62.3348416,37.7118644 C69.2199358,37.7118644 74.8054299,32.0986622 74.8054299,25.1694915 Z M47.8642534,25.1694915 C47.8642534,17.1379608 54.3429564,10.6271186 62.3348416,10.6271186 C70.3267268,10.6271186 76.8054299,17.1379608 76.8054299,25.1694915 C76.8054299,33.2010223 70.3267268,39.7118644 62.3348416,39.7118644 C54.3429564,39.7118644 47.8642534,33.2010223 47.8642534,25.1694915 Z" id="link-Oval-5" fill="#D7D8D8"></path>
            </g>
        </g>
    </g>
</svg>