<?xml version="1.0" encoding="UTF-8"?>
<svg width="151px" height="221px" viewBox="0 0 151 221" version="1.1" xmlns="http://www.w3.org/2000/svg" xmlns:xlink="http://www.w3.org/1999/xlink">
    <!-- Generator: Sketch 40.3 (33839) - http://www.bohemiancoding.com/sketch -->
    <title>tablet</title>
    <desc>Created with Sketch.</desc>
    <defs></defs>
    <g id="Page-1" stroke="none" stroke-width="1" fill="none" fill-rule="evenodd">
        <g id="tablet">
            <g id="tablet-email" transform="translate(15.000000, 61.000000)">
                <polygon id="email-Fill-30" fill="#FFFFFF" points="0.296860023 98.4895576 122.861052 98.4895576 122.861052 0.101392384 0.296860023 0.101392384"></polygon>
                <path d="M118.086142,92.8771927 C118.086142,93.3259387 117.72402,93.6898949 117.277537,93.6898949 L110.936033,93.6898949 C110.48955,93.6898949 110.127428,93.3259387 110.127428,92.8771927 L110.127428,86.5043592 C110.127428,86.0548133 110.48955,85.6908571 110.936033,85.6908571 L117.277537,85.6908571 C117.72402,85.6908571 118.086142,86.0548133 118.086142,86.5043592 L118.086142,92.8771927 Z" id="email-Fill-32" fill="#FF5C3E"></path>
                <polygon id="email-Fill-33" fill="#FFFFFF" points="116.494399 88.8907922 114.902656 88.8907922 114.902656 87.2909846 113.310914 87.2909846 113.310914 88.8907922 111.719171 88.8907922 111.719171 90.4905998 113.310914 90.4905998 113.310914 92.0904073 114.902656 92.0904073 114.902656 90.4905998 116.494399 90.4905998"></polygon>
                <polygon id="email-Fill-34" fill="#D6D7D7" points="25.764744 56.8945609 102.168396 56.8945609 102.168396 52.0951382 25.764744 52.0951382"></polygon>
                <polygon id="email-Fill-35" fill="#D6D7D7" points="19.397773 65.6935025 110.12711 65.6935025 110.12711 61.6939836 19.397773 61.6939836"></polygon>
                <polygon id="email-Fill-36" fill="#D6D7D7" points="32.9275864 87.2909046 78.2922548 87.2909046 78.2922548 73.6925403 32.9275864 73.6925403"></polygon>
                <polygon id="email-Fill-37" fill="#FEBE12" points="78.2922548 87.2909046 94.2096823 87.2909046 94.2096823 73.6925403 78.2922548 73.6925403"></polygon>
                <path d="M74.8054299,25.780019 C74.8054299,18.8508483 69.2199358,13.2376461 62.3348416,13.2376461 C55.4497475,13.2376461 49.8642534,18.8508483 49.8642534,25.780019 C49.8642534,32.7091897 55.4497475,38.3223918 62.3348416,38.3223918 C69.2199358,38.3223918 74.8054299,32.7091897 74.8054299,25.780019 Z M47.8642534,25.780019 C47.8642534,17.7484882 54.3429564,11.2376461 62.3348416,11.2376461 C70.3267268,11.2376461 76.8054299,17.7484882 76.8054299,25.780019 C76.8054299,33.8115497 70.3267268,40.3223918 62.3348416,40.3223918 C54.3429564,40.3223918 47.8642534,33.8115497 47.8642534,25.780019 Z" id="email-Oval-5" fill="#D7D8D8"></path>
                <path d="M56.0270422,27.7681201 C56.0270422,29.4281911 57.3722995,30.7768268 59.0260577,30.7768268 L66.3917595,30.7768268 C68.0493816,30.7768268 69.390775,29.4321496 69.390775,27.7681201 L69.390775,23.8024827 C69.390775,22.1424117 68.0455176,20.793776 66.3917595,20.793776 L59.0260577,20.793776 C57.3684356,20.793776 56.0270422,22.1384532 56.0270422,23.8024827 L56.0270422,27.7681201 Z M59.0260577,18.793776 L66.3917595,18.793776 C69.1526395,18.793776 71.390775,21.040395 71.390775,23.8024827 L71.390775,27.7681201 C71.390775,30.5343525 69.1563176,32.7768268 66.3917595,32.7768268 L59.0260577,32.7768268 C56.2651777,32.7768268 54.0270422,30.5302078 54.0270422,27.7681201 L54.0270422,23.8024827 C54.0270422,21.0362504 56.2614996,18.793776 59.0260577,18.793776 Z" id="email-Rectangle-3" fill="#D7D8D8"></path>
                <path d="M62.1512809,27.1667016 C62.4891488,27.4019327 62.9366524,27.406061 63.2788024,27.1771032 L69.8245931,22.796832 L68.7123094,21.1346572 L62.1665187,25.5149284 L63.2940402,25.5253299 L56.6598489,20.9064591 L55.5170896,22.5478309 L62.1512809,27.1667016 Z" id="email-Path-18" fill="#D7D8D8"></path>
            </g>
        </g>
    </g>
</svg>