<?xml version="1.0" encoding="UTF-8"?>
<svg width="151px" height="221px" viewBox="0 0 151 221" version="1.1" xmlns="http://www.w3.org/2000/svg" xmlns:xlink="http://www.w3.org/1999/xlink">
    <!-- Generator: Sketch 40.3 (33839) - http://www.bohemiancoding.com/sketch -->
    <title>tablet</title>
    <desc>Created with Sketch.</desc>
    <defs></defs>
    <g id="Page-1" stroke="none" stroke-width="1" fill="none" fill-rule="evenodd">
        <g id="tablet">
            <g id="tablet-related" transform="translate(10.000000, 153.000000)">
                <polygon id="related-Fill-30" fill="#FFFFFF" points="0.112581853 38.7385209 130.680091 38.7385209 130.680091 0.0303778539 0.112581853 0.0303778539"></polygon>
                <path d="M124.535661,14.7571231 C124.535661,15.1751711 124.199257,15.5142544 123.784514,15.5142544 L117.606366,15.5142544 C117.191622,15.5142544 116.855219,15.1751711 116.855219,14.7571231 L116.855219,8.52898291 C116.855219,8.11093497 117.191622,7.7726258 117.606366,7.7726258 L123.784514,7.7726258 C124.199257,7.7726258 124.535661,8.11093497 124.535661,8.52898291 L124.535661,14.7571231 Z" id="related-Fill-32" fill="#FF5C3E"></path>
                <polygon id="related-Fill-33" fill="#FFFFFF" points="122.570088 11.1689334 121.033999 11.1689334 121.033999 9.62060768 120.265955 9.62060768 120.265955 11.1689334 118.729867 11.1689334 118.729867 11.9430963 120.265955 11.9430963 120.265955 13.491422 121.033999 13.491422 121.033999 11.9430963 122.570088 11.9430963"></polygon>
                <polygon id="related-Fill-34" fill="#D6D7D7" points="45.427188 24.0294266 103.798545 24.0294266 103.798545 20.1586123 45.427188 20.1586123"></polygon>
                <polygon id="related-Fill-35" fill="#D6D7D7" points="45.427188 15.5136351 106.870722 15.5136351 106.870722 8.54616933 45.427188 8.54616933"></polygon>
                <polygon id="related-Fill-36" fill="#D6D7D7" points="45.427188 31.7710552 109.942898 31.7710552 109.942898 27.9002409 45.427188 27.9002409"></polygon>
                <polygon id="related-Fill-37" fill="#D6D7D7" points="0.112581853 38.7385209 37.7467462 38.7385209 37.7467462 0.0303778539 0.112581853 0.0303778539"></polygon>
            </g>
        </g>
    </g>
</svg>