<?xml version="1.0" encoding="UTF-8"?>
<svg width="151px" height="221px" viewBox="0 0 151 221" version="1.1" xmlns="http://www.w3.org/2000/svg" xmlns:xlink="http://www.w3.org/1999/xlink">
    <!-- Generator: Sketch 40.3 (33839) - http://www.bohemiancoding.com/sketch -->
    <title>tablet</title>
    <desc>Created with Sketch.</desc>
    <defs></defs>
    <g id="Page-1" stroke="none" stroke-width="1" fill="none" fill-rule="evenodd">
        <g id="tablet">
            <g id="tablet-BG" transform="translate(1.000000, 1.000000)">
                <path d="M140.1641,218.5135 L8.7171,218.5135 C4.4271,218.5135 0.9161,215.0035 0.9161,210.7135 L0.9161,8.7945 C0.9161,4.5035 4.4271,0.9935 8.7171,0.9935 L140.1641,0.9935 C144.4541,0.9935 147.9641,4.5035 147.9641,8.7945 L147.9641,210.7135 C147.9641,215.0035 144.4541,218.5135 140.1641,218.5135 L140.1641,218.5135 Z" id="Fill-1" fill="#FFFFFF"></path>
                <path d="M80.393,204.9247 C80.393,208.2127 77.728,210.8777 74.44,210.8777 C71.153,210.8777 68.488,208.2127 68.488,204.9247 C68.488,201.6367 71.153,198.9717 74.44,198.9717 C77.728,198.9717 80.393,201.6367 80.393,204.9247" id="Fill-3" fill="#D6D7D7"></path>
                <polygon id="Fill-5" fill="#FADD9B" points="5.958 193.769 143.094 193.769 143.094 20.611 5.958 20.611"></polygon>
                <polygon id="Fill-7" fill="#FBBC31" points="40.083 60.425 91.272 60.425 91.272 52.841 40.083 52.841"></polygon>
                <polygon id="Fill-8" fill="#FBBC31" points="40.083 71.168 108.967 71.168 108.967 63.584 40.083 63.584"></polygon>
                <path d="M46.5504,111.6569 C46.5504,113.2659 45.2464,114.5709 43.6364,114.5709 C42.0274,114.5709 40.7234,113.2659 40.7234,111.6569 C40.7234,110.0479 42.0274,108.7429 43.6364,108.7429 C45.2464,108.7429 46.5504,110.0479 46.5504,111.6569" id="Fill-9" fill="#FBBC31"></path>
                <path d="M57.9319,111.6569 C57.9319,113.2659 56.6279,114.5709 55.0179,114.5709 C53.4089,114.5709 52.1049,113.2659 52.1049,111.6569 C52.1049,110.0479 53.4089,108.7429 55.0179,108.7429 C56.6279,108.7429 57.9319,110.0479 57.9319,111.6569" id="Fill-10" fill="#FBBC31"></path>
                <path d="M69.3133,111.6569 C69.3133,113.2659 68.0093,114.5709 66.3993,114.5709 C64.7903,114.5709 63.4863,113.2659 63.4863,111.6569 C63.4863,110.0479 64.7903,108.7429 66.3993,108.7429 C68.0093,108.7429 69.3133,110.0479 69.3133,111.6569" id="Fill-11" fill="#FBBC31"></path>
                <path d="M80.6948,111.6569 C80.6948,113.2659 79.3908,114.5709 77.7808,114.5709 C76.1718,114.5709 74.8678,113.2659 74.8678,111.6569 C74.8678,110.0479 76.1718,108.7429 77.7808,108.7429 C79.3908,108.7429 80.6948,110.0479 80.6948,111.6569" id="Fill-12" fill="#FBBC31"></path>
                <path d="M92.0763,111.6569 C92.0763,113.2659 90.7723,114.5709 89.1623,114.5709 C87.5533,114.5709 86.2493,113.2659 86.2493,111.6569 C86.2493,110.0479 87.5533,108.7429 89.1623,108.7429 C90.7723,108.7429 92.0763,110.0479 92.0763,111.6569" id="Fill-13" fill="#FBBC31"></path>
                <polygon id="Fill-14" fill="#FBBC31" points="38.819 122.357 96.328 122.357 96.328 119.197 38.819 119.197"></polygon>
                <polygon id="Fill-15" fill="#FBBC31" points="38.82 136.261 102.648 136.261 102.648 132.469 38.82 132.469"></polygon>
                <polygon id="Fill-16" fill="#FBBC31" points="38.819 149.532 100.12 149.532 100.12 146.372 38.819 146.372"></polygon>
                <polygon id="Fill-17" fill="#FBBC31" points="38.82 129.309 107.072 129.309 107.072 125.517 38.82 125.517"></polygon>
                <polygon id="Fill-18" fill="#FBBC31" points="55.883 90.127 83.689 90.127 83.689 86.335 55.883 86.335"></polygon>
                <polygon id="Fill-19" fill="#FBBC31" points="55.883 96.447 88.745 96.447 88.745 93.287 55.883 93.287"></polygon>
                <polygon id="Fill-20" fill="#FBBC31" points="38.82 142.58 107.072 142.58 107.072 139.42 38.82 139.42"></polygon>
                <path d="M51.4586,93.1187 C51.4586,96.7017 48.5536,99.6067 44.9706,99.6067 L44.6756,99.6067 C41.0916,99.6067 38.1876,96.7017 38.1876,93.1187 L38.1876,92.8237 C38.1876,89.2397 41.0916,86.3357 44.6756,86.3357 L44.9706,86.3357 C48.5536,86.3357 51.4586,89.2397 51.4586,92.8237 L51.4586,93.1187 Z" id="Fill-25" fill="#FBBC31"></path>
                <polygon id="Fill-26" fill="#FBBC31" points="38.82 193.769 107.072 193.769 107.072 157.115 38.82 157.115"></polygon>
            </g>
        </g>
    </g>
</svg>